# Blender v2.82 (sub 7) OBJ File: ''
# www.blender.org
mtllib textHitBox.mtl
o Cube
v 1.000000 -0.194559 -1.000000
v 1.000000 -1.000000 -1.000000
v 1.000000 0.467103 1.000000
v 1.000000 -1.000000 1.000000
v -1.000000 0.709437 -1.000000
v -1.000000 -1.000000 -1.000000
v -1.000000 0.256153 1.000000
v -1.000000 -1.000000 1.000000
v 1.000000 1.000000 0.000000
v 0.000000 1.243670 1.000000
v 0.000000 1.000000 -1.000000
vt 0.875000 0.500000
vt 0.875000 0.750000
vt 0.750000 0.750000
vt 0.375000 0.750000
vt 0.625000 0.750000
vt 0.625000 0.875000
vt 0.625000 1.000000
vt 0.375000 1.000000
vt 0.375000 0.000000
vt 0.625000 0.000000
vt 0.625000 0.250000
vt 0.375000 0.250000
vt 0.125000 0.500000
vt 0.375000 0.500000
vt 0.125000 0.750000
vt 0.625000 0.500000
vt 0.625000 0.625000
vt 0.625000 0.375000
vt 0.750000 0.500000
vn -0.6937 0.7025 0.1592
vn 0.0000 0.0000 1.0000
vn -1.0000 0.0000 0.0000
vn 0.0000 -1.0000 0.0000
vn 1.0000 0.0000 0.0000
vn 0.0000 0.0000 -1.0000
vn 0.5653 0.7280 0.3879
vn 0.1201 0.9855 -0.1201
vn 0.6085 0.5094 -0.6085
vn -0.2771 0.9538 -0.1162
usemtl Material
s off
f 5/1/1 7/2/1 10/3/1
f 4/4/2 3/5/2 10/6/2 7/7/2 8/8/2
f 8/9/3 7/10/3 5/11/3 6/12/3
f 6/13/4 2/14/4 4/4/4 8/15/4
f 2/14/5 1/16/5 9/17/5 3/5/5 4/4/5
f 6/12/6 5/11/6 11/18/6 1/16/6 2/14/6
f 9/17/7 10/3/7 3/5/7
f 11/19/8 10/3/8 9/17/8
f 1/16/9 11/19/9 9/17/9
f 11/19/10 5/1/10 10/3/10
